<svg width="24" height="24" viewBox="0 0 24 24" fill="none" xmlns="http://www.w3.org/2000/svg">
<path d="M17 20.625C17.3125 20.625 17.625 20.3516 17.625 20V8.75H14.5C13.7969 8.75 13.25 8.20312 13.25 7.5V4.375H7C6.64844 4.375 6.375 4.6875 6.375 5V20C6.375 20.3516 6.64844 20.625 7 20.625H17ZM4.5 5C4.5 3.63281 5.59375 2.5 7 2.5H13.4453C14.1094 2.5 14.7344 2.77344 15.2031 3.24219L18.7578 6.79688C19.2266 7.26562 19.5 7.89062 19.5 8.55469V20C19.5 21.4062 18.3672 22.5 17 22.5H7C5.59375 22.5 4.5 21.4062 4.5 20V5Z" fill="#2D2A32"/>
</svg>
