<svg width="24" height="24" viewBox="0 0 24 24" fill="none" xmlns="http://www.w3.org/2000/svg">
<path d="M19.5 5.625H4.5C4.14844 5.625 3.875 5.9375 3.875 6.25V18.75V18.7891L4.03125 18.5547L7.15625 14.1797C7.35156 13.9062 7.625 13.75 7.9375 13.75C8.21094 13.75 8.52344 13.9062 8.67969 14.1406L9.89062 15.8203L13.1328 11.6406C13.2891 11.4062 13.5625 11.25 13.875 11.25C14.1484 11.25 14.4219 11.4062 14.6172 11.6406L19.9297 18.5156L20.125 18.75V6.25C20.125 5.9375 19.8125 5.625 19.5 5.625ZM4.5 3.75H19.5C20.8672 3.75 22 4.88281 22 6.25V18.75C22 20.1562 20.8672 21.25 19.5 21.25H4.5C3.09375 21.25 2 20.1562 2 18.75V6.25C2 4.88281 3.09375 3.75 4.5 3.75ZM7.625 11.25C6.92188 11.25 6.33594 10.8984 5.98438 10.3125C5.63281 9.76562 5.63281 9.02344 5.98438 8.4375C6.33594 7.89062 6.92188 7.5 7.625 7.5C8.28906 7.5 8.875 7.89062 9.22656 8.4375C9.57812 9.02344 9.57812 9.76562 9.22656 10.3125C8.875 10.8984 8.28906 11.25 7.625 11.25Z" fill="#2D2A32"/>
</svg>
